<svg xmlns="http://www.w3.org/2000/svg" width="670" height="670" viewBox="0 0 670 670"><pattern id="a" patternUnits="userSpaceOnUse" width="12" height="12"><path fill="#FFF" d="M0 0h12v12H0z"/><path d="M0 0h1v1H0zm11 0h1v1h-1zm0 1h1v1h-1zm-1 0h1v1h-1zm0 1h1v1h-1zM9 2h1v1H9zm0 1h1v1H9zM8 3h1v1H8zm0 1h1v1H8zM7 4h1v1H7zm0 1h1v1H7zM6 5h1v1H6zm0 1h1v1H6zM5 6h1v1H5zm0 1h1v1H5zM4 8h1v1H4zM3 9h1v1H3zm-1 1h1v1H2zm-1 1h1v1H1zm3-4h1v1H4zM3 8h1v1H3zM2 9h1v1H2zm-1 1h1v1H1zm-1 1h1v1H0z" fill="#e6e6e6"/></pattern><path d="M322.819 114.864A220.1 220.1 0 0 0 127 234.38l263.622 100.6L127 435.593a220.093 220.093 0 0 0 195.819 119.543C444.434 555.136 543 456.562 543 334.982s-98.566-220.118-220.181-220.118z" fill="url(#a)"/></svg>